<mxfile host="Electron" modified="2023-10-11T12:50:42.796Z" agent="Mozilla/5.0 (Macintosh; Intel Mac OS X 10_15_7) AppleWebKit/537.36 (KHTML, like Gecko) draw.io/21.6.8 Chrome/114.0.5735.289 Electron/25.5.0 Safari/537.36" etag="h5q8APSqXBrCljxwZhhP" version="21.6.8" type="device">
  <diagram name="Page-1" id="hnrL_q5DG94uZBxiqhyg">
    <mxGraphModel dx="615" dy="385" grid="1" gridSize="10" guides="1" tooltips="1" connect="1" arrows="1" fold="1" page="1" pageScale="1" pageWidth="827" pageHeight="1169" math="0" shadow="0">
      <root>
        <mxCell id="0" />
        <mxCell id="1" parent="0" />
        <mxCell id="j1PYBabYDC9BJqUHFxgy-1" value="&lt;font style=&quot;font-size: 15px;&quot;&gt;&lt;font color=&quot;#dc0000&quot;&gt;0101010&lt;/font&gt;11111&lt;/font&gt;" style="rounded=0;whiteSpace=wrap;html=1;" vertex="1" parent="1">
          <mxGeometry x="160" y="320" width="120" height="40" as="geometry" />
        </mxCell>
        <mxCell id="j1PYBabYDC9BJqUHFxgy-2" value="&lt;font style=&quot;font-size: 15px;&quot;&gt;1111010&lt;font color=&quot;#dc0000&quot;&gt;10101&lt;/font&gt;&lt;/font&gt;" style="rounded=0;whiteSpace=wrap;html=1;" vertex="1" parent="1">
          <mxGeometry x="320" y="320" width="120" height="40" as="geometry" />
        </mxCell>
        <mxCell id="j1PYBabYDC9BJqUHFxgy-6" value="&lt;font color=&quot;#dc0000&quot; style=&quot;font-size: 15px;&quot;&gt;010101010101&lt;/font&gt;" style="rounded=0;whiteSpace=wrap;html=1;" vertex="1" parent="1">
          <mxGeometry x="490" y="320" width="120" height="40" as="geometry" />
        </mxCell>
        <mxCell id="j1PYBabYDC9BJqUHFxgy-7" value="" style="shape=cross;whiteSpace=wrap;html=1;" vertex="1" parent="1">
          <mxGeometry x="290" y="330" width="20" height="20" as="geometry" />
        </mxCell>
        <mxCell id="j1PYBabYDC9BJqUHFxgy-9" value="" style="shape=singleArrow;whiteSpace=wrap;html=1;" vertex="1" parent="1">
          <mxGeometry x="450" y="335" width="30" height="10" as="geometry" />
        </mxCell>
        <mxCell id="j1PYBabYDC9BJqUHFxgy-11" value="Parent 1" style="text;html=1;strokeColor=none;fillColor=none;align=center;verticalAlign=middle;whiteSpace=wrap;rounded=0;" vertex="1" parent="1">
          <mxGeometry x="190" y="380" width="60" height="30" as="geometry" />
        </mxCell>
        <mxCell id="j1PYBabYDC9BJqUHFxgy-12" value="Parent 2" style="text;html=1;strokeColor=none;fillColor=none;align=center;verticalAlign=middle;whiteSpace=wrap;rounded=0;" vertex="1" parent="1">
          <mxGeometry x="350" y="380" width="60" height="30" as="geometry" />
        </mxCell>
        <mxCell id="j1PYBabYDC9BJqUHFxgy-13" value="Child" style="text;html=1;strokeColor=none;fillColor=none;align=center;verticalAlign=middle;whiteSpace=wrap;rounded=0;" vertex="1" parent="1">
          <mxGeometry x="520" y="380" width="60" height="30" as="geometry" />
        </mxCell>
      </root>
    </mxGraphModel>
  </diagram>
</mxfile>
